<?xml version="1.0" encoding="UTF-8" standalone="no"?>
<!DOCTYPE svg PUBLIC "-//W3C//DTD SVG 1.1//EN" "http://www.w3.org/Graphics/SVG/1.1/DTD/svg11.dtd">
<svg width="100%" height="100%" viewBox="0 0 421 205" version="1.1" xmlns="http://www.w3.org/2000/svg" xmlns:xlink="http://www.w3.org/1999/xlink" xml:space="preserve" xmlns:serif="http://www.serif.com/" style="fill-rule:evenodd;clip-rule:evenodd;stroke-linejoin:round;stroke-miterlimit:2;">
    <g transform="matrix(2.23522,-0.14389,0.0531414,0.825513,-981.756,-196.838)">
        <path d="M458.504,408.175c-18.002,17.633 -15.665,49.575 0.89,68.574c16.556,18.998 43.446,26.322 68.61,24.974c25.163,-1.348 49.232,-10.229 71.582,-15.497l-4.384,-70.882c-48.473,0.487 -96.945,0.974 -136.698,-7.169Z" style="fill:rgb(0,180,255);fill-opacity:0.8;fill-rule:nonzero;"/>
    </g>
    <g transform="matrix(0.980261,0,0,0.980261,-9.84192,-2.63901)">
        <g transform="matrix(1.02014,0,0,1.02014,12.6666,2.69215)">
            <path d="M346.968,131.623c-10.492,1.316 -22.663,2.766 -38.703,4.498c-10.081,1.168 -33.814,3.087 -37.265,3.256c-9.021,-0.071 -16.013,-9.127 -9.176,-12.855c1.063,-1.796 3.066,-2.457 4.855,-3.301c19.783,-10.416 77.73,-90.987 97.816,-100.802c-7.543,7.265 -54.922,88.889 -62.813,95.803c16.401,-3.471 31.826,-9.056 48.23,-12.803c1.811,-13.262 4.105,-26.46 6.879,-39.567c-6.914,7.891 -14.053,24.239 -21.318,31.782c9.814,-20.086 19.736,-48.791 30.152,-68.574c0.844,-1.789 1.505,-3.792 3.301,-4.855c6.259,-5.149 15.162,1.74 12.855,9.176c-0.168,3.451 -2.088,27.184 -3.255,37.265c-1.328,12.293 -2.49,22.313 -3.553,31.051c7.539,-0.422 15.427,-0.169 23.809,1.056c0.219,-2.687 22.463,16.091 14.365,20.149c-0.382,3.885 -8.727,5.668 -9.52,1.628c-12.569,1.414 -22.424,2.662 -32.061,3.914c-1.501,11.485 -2.949,22.602 -4.632,37.564c15.407,-5.512 11.825,1.451 -1.628,9.52c-1.246,9.504 -12.959,8.758 -23.527,6.136c-4.372,-0.878 -7.194,-1.893 -12.667,-2.685c-10.875,-1.574 -3.452,-14.371 7.976,-17.251c2.694,-0.13 5.382,-0.346 8.069,-0.565c0.339,-9.865 0.943,-19.714 1.811,-29.54Z" style="fill-rule:nonzero;"/>
        </g>
        <g transform="matrix(1,0,0,1,16.4045,0)">
            <path d="M208.806,25.683c-34.6,23.527 -34.256,-46.984 -49.168,84.079c-4.298,37.774 14.227,89.773 49.171,77.115c18.469,-9.651 33.361,-13.342 41.763,-31.881c23.275,-51.352 7.066,-132.994 -41.766,-129.313Zm0.135,27.892c16.708,0 30.272,23.074 30.272,51.494c0,28.421 -13.564,51.495 -30.272,51.495c-16.708,-0 -30.272,-23.074 -30.272,-51.495c-0,-28.42 13.564,-51.494 30.272,-51.494Z"/>
        </g>
        <g transform="matrix(1.02014,0,0,1.02014,12.6666,2.69215)">
            <path d="M86.93,131.623c-10.492,1.316 -22.663,2.766 -38.703,4.498c-10.081,1.168 -33.814,3.087 -37.265,3.256c-7.436,2.307 -14.325,-6.596 -9.176,-12.855c1.063,-1.796 3.066,-2.457 4.855,-3.301c19.783,-10.416 77.73,-90.987 97.816,-100.802c-7.543,7.265 -53.133,85.054 -61.024,91.968c15.316,-3.241 30.756,-5.827 46.277,-7.754c1.836,-13.673 4.185,-27.275 7.043,-40.781c-6.914,7.891 -14.106,15.546 -21.371,23.089c9.814,-20.086 19.789,-40.098 30.205,-59.881c0.844,-1.789 1.505,-3.792 3.301,-4.855c6.259,-5.149 15.162,1.74 12.855,9.176c-0.168,3.451 -2.088,27.184 -3.255,37.265c-1.452,13.441 -2.705,24.165 -3.849,33.465c8.02,-0.628 16.057,-1.081 24.105,-1.358c0.219,-2.687 19.623,-7.75 20.501,-3.378c1.301,7.926 1.962,19.469 -6.136,23.527c-0.382,3.885 -8.727,5.668 -9.52,1.628c-12.569,1.414 -22.424,2.662 -32.061,3.914c-1.501,11.485 -2.949,22.602 -4.632,37.564c8.257,1.622 16.711,3.62 25.59,6.105c6.622,1.368 -1.42,0.91 -3.719,1.377c-7.935,0.649 -15.892,1.289 -23.499,2.038c-4.058,8.098 -15.601,7.437 -23.527,6.136c-4.372,-0.878 -9.55,-0.454 -13.191,-3.34c-7.623,-5.743 -2.259,-17.36 6.885,-16.752c0.539,0.046 1.076,0.108 1.615,0.156c2.694,-0.13 5.382,-0.346 8.069,-0.565c0.339,-9.865 0.943,-19.714 1.811,-29.54Z" style="fill-rule:nonzero;"/>
        </g>
    </g>
</svg>
