<?xml version="1.0" encoding="UTF-8" standalone="no"?>
<!DOCTYPE svg PUBLIC "-//W3C//DTD SVG 1.1//EN" "http://www.w3.org/Graphics/SVG/1.1/DTD/svg11.dtd">
<svg width="100%" height="100%" viewBox="0 0 368 368" version="1.1" xmlns="http://www.w3.org/2000/svg" xmlns:xlink="http://www.w3.org/1999/xlink" xml:space="preserve" xmlns:serif="http://www.serif.com/" style="fill-rule:evenodd;clip-rule:evenodd;stroke-linejoin:round;stroke-miterlimit:2;">
    <g transform="matrix(0.628335,0,0,0.628335,47.9704,1.40732e-06)">
        <g transform="matrix(1,0,0,1,-357.034,-104.462)">
            <path d="M358.65,333.431C482.885,317.827 607.744,301.569 732.576,290.47C785.363,293.23 781.313,392.631 776.411,430.526C768.651,491.17 750.12,551.788 757.445,613.55C756.644,632.148 781.696,667.265 748.28,664.347C624.887,677.705 500.736,682.764 376.666,679.491C361.37,682.248 371.69,668.92 372.743,659.59C386.448,608.067 399.098,555.711 402.327,502.392C405.946,442.185 396.995,379.252 365.459,327.056C394.321,377.646 402.522,438.318 398.396,496.816C393.933,561.016 374.892,624.835 357.035,686.841C465.938,692.368 575.083,690.941 683.805,682.569C719.656,673.847 800.273,694.139 773.427,632.637C755.398,555.462 787.272,478.268 789.971,401.058C790.699,356.525 783.793,272.158 721.608,282.174C602.833,296.321 465.585,315.892 358.65,333.431Z" style="fill-rule:nonzero;stroke:black;stroke-width:15.92px;"/>
        </g>
        <g transform="matrix(1,0,0,1,-357.034,-104.462)">
            <path d="M697.951,419.687C637.986,404.304 573.281,413.845 518.895,442.783C575.469,428.03 640.111,421.51 697.951,419.687Z" style="fill-rule:nonzero;stroke:black;stroke-width:15.92px;"/>
        </g>
        <g transform="matrix(1,0,0,1,-357.034,-104.462)">
            <path d="M694.24,499.675C621.842,499.676 548.399,512.271 479.667,532.321C547.811,527.104 638.995,514.008 694.24,499.675Z" style="fill-rule:nonzero;stroke:black;stroke-width:15.92px;"/>
        </g>
        <g transform="matrix(1,0,0,1,-357.034,-104.462)">
            <path d="M697.733,597.906C625.022,589.73 549.311,597.619 479.529,616.523C543.867,612.358 636.205,606.087 697.733,597.906Z" style="fill-rule:nonzero;stroke:black;stroke-width:15.92px;"/>
        </g>
        <g transform="matrix(1,0,0,1,-357.034,-104.462)">
            <path d="M558.832,282.205C574.667,284.159 628.243,258.477 615.415,283.233C591.455,369.006 596.887,323.672 554.98,283.247C571.797,308.181 586.089,336.941 597.971,364.992C623.149,291.275 670.954,229.621 558.832,282.205Z" style="fill-rule:nonzero;stroke:black;stroke-width:15.92px;"/>
        </g>
        <g transform="matrix(1,0,0,1,-357.034,-104.462)">
            <path d="M515.219,269.264C513.836,269.613 512.415,269.789 510.989,269.789C501.489,269.789 493.672,261.972 493.672,252.472C493.672,247.794 495.568,243.31 498.923,240.051C504.502,234.632 513.606,233.01 517.396,226.218C519.688,222.11 519.4,217.083 518.72,212.428C516.495,197.191 510.801,182.686 507.525,167.64C504.25,152.594 503.614,136.09 510.985,122.571C518.356,109.051 535.769,100.213 549.799,106.558C563.379,112.699 568.321,129.114 571.755,143.617L580.659,181.214C581.069,183.656 581.964,185.99 583.29,188.08C588.667,195.401 600.244,191.399 609.034,193.686C620.933,196.782 625.976,212.317 621.729,223.855C617.482,235.393 606.861,243.314 596.091,249.245C570.029,263.597 540.058,270.21 510.306,270.271" style="fill:rgb(0,180,255);fill-opacity:0.8;fill-rule:nonzero;"/>
        </g>
        <g transform="matrix(1,0,0,1,-357.034,-104.462)">
            <path d="M539.306,282.362C587.967,297.799 722.812,223.295 622.971,198.822C601.476,170.696 601.132,68.286 538.972,127.768C508.951,164.397 564.79,212.335 540.71,244.994C521.14,250.594 519.786,281.383 543.223,277.301C497.276,267.407 562.761,246.952 553.388,224.854C548.896,192.509 519.338,132.394 568.6,122.737C601.903,129.222 594.011,177.617 606.94,201.951C711.118,229.538 589.375,283.557 539.306,282.362Z" style="fill-rule:nonzero;stroke:black;stroke-width:15.92px;"/>
        </g>
        <g transform="matrix(1,0,0,1,-357.034,-104.462)">
            <path d="M596.821,373.69C596.039,368.843 605.378,364.578 600.781,363.018C600.248,370.723 588.211,368.182 594.686,374.28C596.099,372.261 598.627,371.321 601.016,371.924C598.572,369.592 598.771,371.183 596.52,372.337C598.364,375.969 598.063,377.035 603.035,375.123C604.401,375.531 601.73,376.737 603.324,375.51C602.493,375.33 599.281,370.486 599.504,373.33C598.152,372.503 598.019,371.53 597.051,370.484C597.621,371.49 596.072,373.325 597.431,372.692C605.422,380.886 597.662,365.074 598.217,369.918C600.303,370.164 602.948,370.079 601.127,367.954C595.075,360.831 597.457,368.118 590.968,367.678C594.533,373.79 591.511,367.897 594.197,364.625C597.138,358.289 609.547,358.553 611.096,365.519C610.511,375.482 597.337,383.656 588.553,378.624C585.726,366.645 592.687,355.81 585.766,374.424C586.748,391.097 613.675,381.586 616.623,369.494C622.918,344.767 578.424,347.557 582.505,372.005C588.284,388.05 613.864,373.111 607.808,357.867C590.776,349.925 580.526,381.015 600.51,379.55C626.869,365.534 587.217,352.555 589.87,375.925C603.311,393.664 614.99,357.143 595.034,367.681C592.739,368.725 592.93,377.03 593.811,374.972C593.551,373.384 594.435,371.549 594.904,370.06C599.059,367.521 600.455,373.986 605.62,365.915C616.19,368.461 591.084,357.333 590.172,379.257C618.852,387.134 601.277,344.772 587.961,376.417C597.051,376.224 604.664,369.411 603.42,360.125C599.341,363.487 596.3,368.848 596.821,373.69Z" style="fill-rule:nonzero;stroke:black;stroke-width:15.92px;"/>
        </g>
    </g>
</svg>
