<?xml version="1.0" encoding="UTF-8" standalone="no"?>
<!DOCTYPE svg PUBLIC "-//W3C//DTD SVG 1.1//EN" "http://www.w3.org/Graphics/SVG/1.1/DTD/svg11.dtd">
<svg width="100%" height="100%" viewBox="0 0 871 232" version="1.1" xmlns="http://www.w3.org/2000/svg" xmlns:xlink="http://www.w3.org/1999/xlink" xml:space="preserve" xmlns:serif="http://www.serif.com/" style="fill-rule:evenodd;clip-rule:evenodd;stroke-linejoin:round;stroke-miterlimit:2;">
    <g transform="matrix(1,0,0,1,-164.935,-334.288)">
        <path d="M983.462,427.025c1.253,29.065 9.375,57.422 23.699,82.742c-9.104,-38.024 -6.712,-77.909 6.871,-114.572l1.948,-2.571c-7.563,-6.713 -20.467,-2.916 -26.388,5.282c-5.921,8.198 -6.554,19.016 -6.13,29.119Z" style="fill:rgb(0,180,255);fill-opacity:0.8;fill-rule:nonzero;"/>
    </g>
    <g transform="matrix(1,0,0,1,-164.935,-334.288)">
        <path d="M674.873,499.321c-3.401,8.589 -12.509,15.68 -21.495,13.538c-5.732,-1.365 -10.055,-6.012 -13.58,-10.733c-8.794,-11.803 -14.89,-25.395 -17.857,-39.813c-11.936,15.494 -18.307,34.569 -18.078,54.126c0.12,7.611 1.404,15.574 6.039,21.612c7.148,9.312 20.591,11.631 32.081,9.222c23.771,-4.984 40.946,-26.134 40.946,-50.422c-0,-8.715 -2.211,-17.289 -6.426,-24.917c0.912,9.193 1.771,18.798 -1.63,27.387Z" style="fill:rgb(0,180,255);fill-opacity:0.8;fill-rule:nonzero;"/>
    </g>
    <g transform="matrix(1,0,0,1,-164.935,-334.288)">
        <path d="M317.994,503.416c-3.401,8.589 -12.509,15.68 -21.495,13.538c-5.732,-1.365 -10.055,-6.011 -13.58,-10.732c-8.794,-11.804 -14.89,-25.396 -17.857,-39.813c-11.936,15.493 -18.307,34.568 -18.078,54.125c0.12,7.611 1.404,15.574 6.039,21.612c7.148,9.312 20.591,11.631 32.081,9.222c23.771,-4.984 40.946,-26.134 40.946,-50.422c-0,-8.715 -2.211,-17.289 -6.426,-24.917c0.912,9.193 1.771,18.798 -1.63,27.387Z" style="fill:rgb(0,180,255);fill-opacity:0.8;fill-rule:nonzero;"/>
    </g>
    <g transform="matrix(1,0,0,1,-164.935,-334.288)">
        <path d="M248.829,503.416c-3.401,8.589 -12.51,15.68 -21.496,13.538c-5.731,-1.365 -10.054,-6.011 -13.579,-10.732c-8.794,-11.804 -14.89,-25.396 -17.857,-39.813c-11.936,15.493 -18.307,34.568 -18.078,54.125c0.119,7.611 1.404,15.574 6.039,21.612c7.148,9.312 20.591,11.631 32.081,9.222c23.771,-4.984 40.946,-26.134 40.946,-50.422c-0,-8.715 -2.212,-17.289 -6.427,-24.917c0.912,9.193 1.772,18.798 -1.629,27.387Z" style="fill:rgb(0,180,255);fill-opacity:0.8;fill-rule:nonzero;"/>
    </g>
    <g transform="matrix(1,0,0,1,-164.935,-334.288)">
        <path d="M337.641,401.84c-2.11,9.43 -3.925,26.249 -6.155,38.196c-3.531,20.494 -5.515,32.637 -9.378,51.29c-3.686,17.208 -7.01,29.192 -13.077,41.068c-3.98,6.981 -2.424,4.858 -7.494,9.882c-5.517,4.514 -2.598,2.771 -8.793,6.276c-0.063,0.031 -0.128,0.057 -0.191,0.087c-0.058,0.021 -0.114,0.044 -0.172,0.065c-0.487,0.178 -0.979,0.339 -1.476,0.484c-0.578,0.175 -1.156,0.309 -1.607,0.403c-1.186,0.127 -2.382,0.139 -3.571,0.034c-0.956,-0.214 -2.071,-0.561 -2.724,-0.763c-0.591,-0.297 -1.163,-0.633 -1.709,-1.007c-0.143,-0.136 -0.318,-0.305 -0.529,-0.511c-4.455,-5.176 -3.976,-3.903 -7.698,-11.441c-0.909,-2.041 -0.293,-0.657 0.198,0.532c-4.487,-9.682 -6.397,-24.66 -6.948,-29.033c-1.322,-10.579 -2.302,-21.249 -2.744,-31.936c1.065,-7.98 1.953,-15.994 2.462,-24.028c0.117,-5.576 1.256,-11.532 -0.721,-16.874c-2.314,-6.039 -10.646,-7.313 -14.413,-1.885c-1.868,2.172 -1.977,5.156 -2.331,7.869c-0.34,3.544 -0.351,7.106 -0.374,10.664c0.063,3.98 0.137,8.325 0.252,12.912c-0.135,1.455 -0.272,2.911 -0.408,4.366c-2.046,19.131 -6.581,44.6 -16.48,61.303c-6.915,11.988 -16.939,16.62 -21.622,16.117c-9.198,-1.479 -12.553,-6.968 -20.231,-20.197c-10.823,-19.817 -15.176,-44.08 -17.335,-67.787c-0.756,-12.948 -2.281,-26.542 1.572,-39.122c-3.297,5.429 -4.543,11.803 -5.859,17.939c-1.761,9.614 -2.778,19.351 -3.039,29.122c-0.948,29.929 3.893,62.833 24.926,85.605c17.725,17.415 40.298,7.738 52.895,-10.39c4.164,-6.349 7.601,-13.145 10.246,-20.262c2.918,17.583 11.147,41.013 29.446,44.339c10.424,2.245 20.662,-2.609 28.302,-9.47c8.425,-6.227 13.168,-15.704 17.139,-25.132c4.128,-9.289 6.411,-19.24 8.022,-29.241c4.921,-32.902 5.044,-66.415 1.619,-99.474Z" style="fill-rule:nonzero;"/>
    </g>
    <g transform="matrix(1,0,0,1,-164.935,-334.288)">
        <path d="M420.118,550.927c-9.597,1.09 -18.154,0.987 -24.673,-0.549c-13.626,-2.878 -24.944,-9.466 -27.18,-12.491c-10.642,-15.76 -11.69,-28.217 -9.276,-42.648c2.632,-14.173 4.131,-18.001 12.466,-30.142c2.876,-3.349 8.686,-9.158 14.485,-9.005c7.279,0.043 19.676,3.323 24.16,9.316c2.509,5.24 7.011,12.659 -5.728,23.902c-7.612,5.557 -17.938,6.965 -26.956,9.813c12.699,-1.296 27.301,-0.587 36.783,-10.629c9.421,-8.247 10.319,-21.011 4.225,-31.548c-3.028,-4.757 -7.86,-7.895 -12.751,-10.495c-10.994,-5.588 -24.723,-8.279 -35.789,-1.443c-23.765,15.239 -35.812,56.593 -25.434,82.598c4.69,11.865 12.242,23.957 25,28.066c16.395,6.234 34.52,6.242 50.92,0.021c6.144,-2.15 12.05,-4.928 17.623,-8.289c-5.849,1.673 -11.828,2.852 -17.875,3.523Z" style="fill-rule:nonzero;"/>
    </g>
    <g transform="matrix(1,0,0,1,-164.935,-334.288)">
        <path d="M510.41,555.748c-8.322,0.28 -17.598,-1.982 -23.54,-7.062c-8.46,-6.581 -15.405,-14.905 -20.365,-24.406c11.521,-13.771 19.545,-28.815 26.293,-49.793c5.662,-18.014 9.952,-36.645 11.171,-55.525c0.117,-11.596 -0.276,-23.441 -3.296,-34.692c-5.049,-14.116 -14.194,-22.598 -29.419,-15.475c-24.013,10.304 -32.627,44.15 -33.93,73.806c-1.205,29.327 2.509,61.646 18.727,86.775c-4.895,6.864 -9.866,12.793 -15.451,20.079c6.253,-5.161 12.243,-10.632 17.948,-16.394c1.172,1.636 2.401,3.237 3.688,4.803c7.776,8.581 17.534,15.869 28.627,19.461c6.676,1.937 13.854,1 20.477,-0.721c1.244,-0.352 2.468,-0.766 3.682,-1.206c-1.53,0.196 -3.07,0.313 -4.612,0.35Zm-39.745,-171.033c6.51,-4.323 6.709,-3.72 8.865,-4.268c0.508,-0.039 1.018,-0.05 1.526,-0.034c0.287,0.061 0.57,0.13 0.851,0.215l0.063,0.04c0.103,0.1 0.231,0.228 0.362,0.358c1.014,1.481 1.937,3.023 2.764,4.616c0.491,1.158 0.693,0.928 1.831,5.652c2.233,13.372 2.465,27.003 0.686,40.444c-0.977,5.69 -5.831,34.746 -9.579,47.8c-3.926,15.111 -7.714,25.799 -14.597,38.145c-3.724,-9.074 -6.17,-19.25 -8.503,-31.132c-5.718,-27.316 -6.758,-85.882 15.731,-101.836Z" style="fill-rule:nonzero;"/>
    </g>
    <g transform="matrix(1,0,0,1,-164.935,-334.288)">
        <path d="M529.081,507.675c-0.103,0.699 -0.123,0.959 -0,0Z" style="fill-rule:nonzero;"/>
    </g>
    <g transform="matrix(1,0,0,1,-164.935,-334.288)">
        <path d="M566.18,552.075c-8.715,-0.055 -16.61,-1.435 -21.95,-3.729c-8.24,-4.951 -12.771,-10.313 -14.558,-20.229c-0.241,-1.244 -1.837,-13.984 -0.481,-21.315c-0.045,0.363 -0.081,0.65 -0.11,0.873c0.063,-0.426 0.156,-1.013 0.269,-1.591c1.697,-9.208 4.971,-19.55 7.237,-24.158c-0.19,0.448 -0.379,0.896 -0.568,1.344c2.737,-6.109 5.078,-12.473 8.903,-18.015c2.697,-3.554 5.807,-6.776 9.264,-9.596c4.783,-3.879 10.599,-6.141 15.994,-9.011c-21.297,3.638 -32.492,11.449 -43.35,30.112c-6.215,9.594 -10.364,20.379 -12.18,31.665c-1.116,6.749 -0.137,13.582 0.965,20.266c1.803,12.499 10.811,23.22 22.481,27.82c11.805,4.034 24.941,1.005 36.272,-3.282c1.378,-0.571 2.745,-1.173 4.091,-1.814c-4.071,0.522 -8.176,0.743 -12.279,0.66Z" style="fill-rule:nonzero;"/>
    </g>
    <g transform="matrix(1,0,0,1,-164.935,-334.288)">
        <path d="M688.905,490.294c-3.147,-9.921 -10.911,-18.124 -20.105,-22.803c-9.657,-4.225 -20.461,-4.747 -30.859,-5.156c-0.423,-0.051 -2.186,-0.074 -1.13,0.079c5.917,1.399 11.716,3.254 17.346,5.55c3.629,1.513 7.095,3.391 10.344,5.605c2.649,2.129 4.959,4.646 6.854,7.467c9.459,13.091 5.78,27.577 -4.907,43.742c-3.765,4.391 -21.52,17.52 -29.387,16.161c-14.866,-0.153 -33.805,-19.086 -31.7,-42.96c-0.248,-3.728 3.219,-13.914 5.188,-17.801c2.999,-6.442 5.881,-11.632 11.117,-16.085c3.833,-3.31 8.496,-5.516 13.487,-6.379c4.005,-0.618 8.094,-0.224 12.132,-0.357c-24.467,-7.451 -39.063,6.127 -49.984,26.697c-12.623,23.851 -3.279,56.246 20.405,69.362c21.214,12.394 43.023,1.304 58.985,-14.17c11.221,-12.382 16.801,-32.733 12.214,-48.952Z" style="fill-rule:nonzero;"/>
    </g>
    <g transform="matrix(1,0,0,1,-164.935,-334.288)">
        <path d="M858.974,473.29c-4.71,-16.584 -19.825,-34.146 -38.177,-24.113c-10.018,6.72 -14.289,18.328 -17.811,29.512c-1.765,-5.801 -4.656,-11.198 -8.506,-15.883c-3.876,-5.312 -9.397,-10.131 -16.234,-10.533c-7.212,0.03 -14.684,3.001 -19.275,8.692c-5.147,6.265 -7.71,14.127 -11.004,21.433c-2.04,4.835 -4.057,9.708 -5.729,14.686c-3.357,-11.386 -7.532,-22.516 -12.493,-33.301c4.905,20.908 6.429,40.671 6.965,61.961c-0.435,4.154 -0.744,8.321 -0.829,12.503c0.109,5.275 -0.595,12.276 4.582,15.408c3.768,2.146 8.628,0.871 10.858,-2.847c1.243,-2.17 1.234,-4.631 0.969,-7.081c0.033,-4.406 0.893,-8.806 1.371,-13.191c1.329,-7.767 2.617,-15.549 4.41,-23.224c1.54,-5.679 3.481,-11.241 5.81,-16.644c2.257,-5.787 4.888,-11.421 7.876,-16.867c0.243,-0.388 0.517,-0.754 0.778,-1.129c0.404,-0.442 0.824,-0.846 1.129,-1.131c0.324,-0.199 0.643,-0.375 0.913,-0.517c0.667,-0.247 1.352,-0.444 2.048,-0.591c0.157,0.147 0.329,0.277 0.48,0.431c3.501,4.225 3.496,3.369 7.159,10.641c0.018,0.049 0.029,0.076 0.049,0.128c4.544,13.885 5.84,30.423 6.846,37.901c0.294,3.878 0.666,7.767 0.93,11.658c-0.471,4.669 -0.752,8.983 -0.835,12.767c-0.357,11.17 12.15,15.991 18.295,6.18c2.922,-6.028 1.546,-13.033 1.373,-19.49c-0.137,-2.342 -0.331,-4.679 -0.533,-7.015c1.492,-13.422 4.359,-26.655 8.559,-39.49c3.48,-10.714 4.783,-13.787 8.888,-18.388c0.428,-0.482 0.883,-0.94 1.364,-1.37c0.385,-0.255 0.778,-0.492 1.184,-0.711c0.082,-0.022 0.163,-0.05 0.245,-0.07c0.452,-0.019 1.032,-0.031 1.602,-0.008c0.409,0.087 0.926,0.211 1.44,0.367c0.65,0.333 1.279,0.706 1.883,1.116c10.979,7.171 19.962,42.055 26.512,74.457c0.615,3.056 1.18,6.122 1.628,9.206c0.499,-4.849 0.787,-9.719 0.971,-14.591c0.512,-20.378 0.08,-41.167 -5.691,-60.862Z" style="fill-rule:nonzero;"/>
    </g>
    <g transform="matrix(1,0,0,1,-164.935,-334.288)">
        <path d="M970.426,557.506c-4.113,0.945 -8.323,1.405 -12.543,1.368c-29.732,-0.049 -52.883,-18.079 -58.314,-36.403c-2.755,-10.131 -2.409,-9.425 -2.98,-16.981c0.047,-8.006 -0.18,-3.228 1.173,-11.487c2.894,-15.278 7.7,-25.012 13.03,-30.678c2.725,-3.223 5.78,-6.151 9.115,-8.737c0.425,-0.319 0.846,-0.644 1.281,-0.949c6.435,-4.112 4.199,-2.705 8.672,-4.323c1.974,-0.626 3.983,-1.132 6.017,-1.516l0.032,-0.003c1.19,-0.088 2.386,-0.069 3.572,0.057c0.97,0.231 2.015,0.552 2.695,0.766c0.593,0.3 1.167,0.636 1.719,1.008c4.13,4.465 2.293,1.629 4.765,6.257c2.727,7.966 0.007,19.578 -4.596,28.893c-5.624,11.262 -21.421,14.205 -36.548,6.849c15.781,12.734 37.178,13.17 48.33,-5.569c5.634,-9.141 9.765,-19.863 8.692,-30.756c-0.993,-9.362 -6.376,-17.718 -14.491,-22.492c-8.818,-4.784 -19.307,-3.776 -28.459,-0.489c-10.394,3.943 -19.178,11.587 -26.125,20.133c-7.566,8.72 -11.827,19.602 -14.625,30.68c-1.509,5.945 -2.545,12 -3.1,18.109c0.055,15.298 4.78,30.991 15.149,42.485c18.784,20.713 51.688,26.59 76.788,14.589c1.239,-0.676 3.549,-1.612 0.751,-0.811Z" style="fill-rule:nonzero;"/>
    </g>
    <g transform="matrix(1,0,0,1,-164.935,-334.288)">
        <path d="M1009.25,536.215c-8.982,0.223 -8.959,13.382 0,13.629c8.983,-0.222 8.959,-13.382 0,-13.629Z" style="fill-rule:nonzero;"/>
    </g>
    <g transform="matrix(1,0,0,1,-164.935,-334.288)">
        <path d="M1033.66,418.617c-1.442,-9.805 -4.308,-19.348 -8.506,-28.325c-4.747,-11.501 -12.788,-22.413 -24.06,-28.13c-18.824,-8.026 -28.137,9.718 -29.631,25.941c-1.242,10.375 1.185,20.734 3.16,30.868c6.487,30.526 21.341,58.286 31.412,87.644c-1.584,4.021 -3.115,8.062 -4.336,12.209c8.467,-13.151 17.783,-25.828 24.889,-39.806c9.999,-17.68 9.34,-48.509 7.072,-60.401Zm-24.87,81.025c-0.909,2.325 -1.838,4.646 -2.754,6.971c-3.979,-28.097 -16.381,-67.981 -18.864,-89.697c-0.981,-8.259 -2.37,-16.552 -1.834,-24.893c0.028,-4.425 2.67,-14.244 5.094,-16.764l0.04,-0.03c0.282,-0.192 0.573,-0.372 0.872,-0.536c0.268,-0.083 0.522,-0.153 0.739,-0.206c0.222,-0.01 0.443,-0.015 0.665,-0.01c1.733,0.337 1.439,0.207 4.188,2.04c10.56,9.43 11.451,15.106 16.665,28.755c5.647,19.452 6.456,28.948 7.098,49.01c0.905,15.01 -5.296,28.794 -11.909,45.36Z" style="fill-rule:nonzero;"/>
    </g>
    <g id="undraw_handcrafts_say_hello.svg" transform="matrix(0.382157,0,0,0.382157,500.537,58.8481)">
        <g transform="matrix(1,0,0,1,-171.32,-153.989)">
            <clipPath id="_clip1">
                <rect x="0" y="0" width="342.641" height="307.979"/>
            </clipPath>
            <g clip-path="url(#_clip1)">
                <g transform="matrix(1,0,0,1,-428.68,-296.011)">
                    <path d="M560.879,568.772l5.009,-2.891l-1.705,-1.17c-1.103,1.355 -2.205,2.709 -3.304,4.061Z" style="fill:rgb(0,180,255);fill-opacity:0.8;fill-rule:nonzero;"/>
                </g>
                <g transform="matrix(1,0,0,1,-428.68,-296.011)">
                    <path d="M625.287,461.788c4.475,-16.981 5.842,-35.242 0.51,-51.97c-5.331,-16.73 -18.166,-31.652 -35.061,-36.434c-16.897,-4.778 -37.297,2.588 -44.776,18.477c-5.598,11.894 -4.7,27.989 -15.591,35.357c-13.078,8.845 -30.517,-2.928 -46.223,-1.305c-14.514,1.498 -25.78,15.293 -27.437,29.792c-1.66,14.496 4.733,28.99 14.116,40.166c9.385,11.174 21.574,19.575 33.605,27.831c19.918,13.671 39.836,27.341 59.753,41.009c25.431,-31.3 50.846,-64.033 61.104,-102.923Z" style="fill:rgb(0,180,255);fill-opacity:0.8;fill-rule:nonzero;"/>
                </g>
                <g transform="matrix(1,0,0,1,-428.68,-296.011)">
                    <path d="M597.451,523.489c-10.283,17.421 -19.916,35.235 -29.011,53.302c22.063,-31.396 42.631,-54.86 67.57,-86.152c8.077,-10.223 15.586,-20.881 22.493,-31.927c26.625,-5.243 50.722,-18.843 71.022,-36.684c-24.267,9.62 -46.782,22.929 -69.946,34.853c6.353,-10.357 11.686,-21.306 15.925,-32.692c5.086,-13.446 9.641,-27.667 8.674,-42.212c-1.94,-21.561 -7.788,-39.165 -26.204,-52.914c-16.62,-10.438 -36.842,-5.916 -50.768,6.87c-11.737,9.408 -19.652,22.155 -25.5,35.801c-8.464,-14.764 -23.886,-28.835 -46.959,-18.951c-21.476,8.058 -37.638,25.935 -48.184,45.856c-11.649,21.766 -12.38,47.591 -5.838,71.062c6.98,27.417 23.394,50.844 40.482,72.909c7.711,10.386 19.458,24.379 25.693,32.391c7.357,9.623 14.389,19.491 21.911,28.988c-11.931,-23.02 -24.745,-45.514 -38.234,-67.657c-13.214,-22.482 -24.675,-41.391 -29.945,-62.392c-5.047,-17.331 -6.146,-34.821 -3.845,-47.157c4.568,-26.985 24.062,-50.583 41.597,-56.738c14.33,-5.841 20.479,-1.795 28.492,12.379c1.664,3.567 0.867,1.466 2.987,7.714c1.131,3.964 2.456,8.21 6.184,10.468c5.198,3.253 12.155,0.694 14.86,-4.572c1.144,-2.447 2.014,-5.014 2.594,-7.653c0.019,-0.031 0.035,-0.065 0.048,-0.099c1.795,-5.142 3.57,-10.292 5.624,-15.337c1.138,-2.431 4.063,-8.592 5.076,-9.772c0.597,-0.861 1.194,-1.721 1.792,-2.582c0.129,-0.164 0.266,-0.337 0.411,-0.517c8.251,-10.081 14.858,-14.403 20.925,-16.877c9.06,-3.075 11.605,-0.676 16.65,0.515c5.475,3.107 3.608,1.645 8.79,7.281c12.83,18.555 14.235,36.781 6.884,59.484c-10.648,36.653 -39.034,74.962 -62.25,113.012Z" style="fill-rule:nonzero;"/>
                </g>
                <g transform="matrix(1,0,0,1,-428.68,-296.011)">
                    <path d="M542.926,413.102c-15.87,0.394 -15.828,23.644 0.001,24.08c15.87,-0.393 15.828,-23.643 -0.001,-24.08Z" style="fill-rule:nonzero;"/>
                </g>
                <g transform="matrix(1,0,0,1,-428.68,-296.011)">
                    <path d="M607.254,402.075c-15.87,0.393 -15.829,23.643 0.001,24.08c15.87,-0.394 15.829,-23.644 -0.001,-24.08Z" style="fill-rule:nonzero;"/>
                </g>
                <g transform="matrix(1,0,0,1,-428.68,-296.011)">
                    <path d="M584.408,475.251c-4.387,3.152 -9.051,5.901 -13.933,8.214c-7.171,2.755 -14.816,3.998 -22.306,5.568c15.963,1.708 28.031,-0.708 38.174,-14.041c3.423,-4.334 0.529,-1.369 -1.935,0.259Z" style="fill-rule:nonzero;"/>
                </g>
                <g transform="matrix(1,0,0,1,-428.68,-296.011)">
                    <path d="M767.278,392.965c-3.139,-3.467 -7.276,-5.631 -8.385,-6.859c-0.014,-0.027 -0.031,-0.053 -0.049,-0.078c-2.325,-6.649 -9.634,-10.279 -16.337,-8.114c-5.803,2.231 -9.829,7.483 -13.129,12.538c-6.201,9.674 -6.21,21.655 -6.55,32.764c3.677,-10.585 4.911,-17.282 10.713,-25.764c4.03,-5.097 8.911,-9.057 11.462,-9.964c1.89,-0.012 1.415,-0.139 2.778,0.607l0.015,0.013c0.092,0.092 0.197,0.203 0.291,0.303c0.088,0.145 0.168,0.288 0.23,0.402c1.067,4.056 4.346,6.821 7.838,8.902c0.388,0.236 1.161,0.797 1.668,1.17c0.884,0.686 1.709,1.444 2.467,2.267c0.025,0.031 0.035,0.042 0.058,0.069c1.793,2.604 0.999,5.062 -0.321,8.948c-2.763,6.326 -8.371,9.996 -13.17,13.17c-5.204,3.33 -11.025,5.458 -16.653,7.939c0.769,-0.09 1.539,-0.179 2.309,-0.271c11.183,-1.019 22.708,-3.863 31.272,-11.527c7.08,-6.526 10.956,-18.853 3.493,-26.515Z" style="fill-rule:nonzero;"/>
                </g>
                <g transform="matrix(1,0,0,1,-428.68,-296.011)">
                    <path d="M721.966,325.54c-15.87,0.393 -15.828,23.643 0.001,24.08c15.87,-0.394 15.829,-23.643 -0.001,-24.08Z" style="fill-rule:nonzero;"/>
                </g>
                <g transform="matrix(1,0,0,1,-428.68,-296.011)">
                    <path d="M558.685,296.011c-15.87,0.393 -15.828,23.643 0.001,24.079c15.869,-0.393 15.828,-23.643 -0.001,-24.079Z" style="fill-rule:nonzero;"/>
                </g>
                <g transform="matrix(1,0,0,1,-428.68,-296.011)">
                    <path d="M440.567,547.88c-15.87,0.394 -15.829,23.644 -0,24.08c15.87,-0.393 15.829,-23.643 -0,-24.08Z" style="fill-rule:nonzero;"/>
                </g>
                <g transform="matrix(1,0,0,1,-428.68,-296.011)">
                    <path d="M567.489,443.284c-5.019,2.713 -8.139,8.64 -6.17,14.337c1.044,2.717 3.341,4.768 6.158,5.499c2.442,0.814 -1.259,-0.883 -1.804,-1.64c-3.462,-3.22 -3.075,-9.161 0.246,-12.338c1.477,-1.682 3.362,-1.948 4.814,-4.102c1.412,-6.529 1.227,-13.485 1.578,-20.178c-2.016,6.007 -2.922,12.468 -4.822,18.422Z" style="fill-rule:nonzero;"/>
                </g>
            </g>
        </g>
    </g>
</svg>
